<?xml version="1.0" encoding="UTF-8"?>
<svg id="Layer_1" xmlns="http://www.w3.org/2000/svg" version="1.1" viewBox="0 0 266.75 92">
  <!-- Generator: Adobe Illustrator 29.2.1, SVG Export Plug-In . SVG Version: 2.1.0 Build 116)  -->
  <defs>
    <style>
      .st0 {
        fill: #112b4f;
      }

      .st1 {
        fill: #9b2e2b;
      }
    </style>
  </defs>
  <g>
    <path class="st1" d="M23.36,100.2h-1.26v-6.32h1.26v6.32Z"/>
    <path class="st1" d="M29.97,100.2h-1.13l-2.32-3.45c-.15-.23-.36-.55-.44-.71,0,.24.02,1.03.02,1.38v2.78h-1.25v-6.32h1.21l2.24,3.34c.15.23.36.55.44.71,0-.24-.02-1.03-.02-1.38v-2.67h1.25v6.32Z"/>
    <path class="st1" d="M36,98.28c0,1.2-.76,2.01-2.48,2.01-1.06,0-1.98-.44-2.46-1.15l.91-.81c.44.51,1.01.72,1.62.72.75,0,1.1-.21,1.1-.69,0-.41-.22-.59-1.41-.86-1.17-.27-1.98-.64-1.98-1.89,0-1.15,1.01-1.85,2.26-1.85.98,0,1.71.37,2.3.99l-.91.89c-.41-.42-.86-.65-1.44-.65-.68,0-.9.29-.9.57,0,.4.27.52,1.27.76,1,.23,2.11.58,2.11,1.95Z"/>
    <path class="st1" d="M41.37,95.12h-1.82v5.08h-1.26v-5.08h-1.82v-1.25h4.9v1.25Z"/>
    <path class="st1" d="M43.72,100.2h-1.26v-6.32h1.26v6.32Z"/>
    <path class="st1" d="M49.7,95.12h-1.82v5.08h-1.26v-5.08h-1.82v-1.25h4.9v1.25Z"/>
    <path class="st1" d="M55.77,97.4c0,1.83-.96,2.89-2.57,2.89s-2.56-1.03-2.56-2.87v-3.55h1.26v3.53c0,1.01.49,1.65,1.29,1.65s1.3-.62,1.3-1.63v-3.55h1.26v3.53Z"/>
    <path class="st1" d="M61.61,95.12h-1.82v5.08h-1.26v-5.08h-1.82v-1.25h4.9v1.25Z"/>
    <path class="st1" d="M67.13,100.2h-4.53v-6.32h4.39v1.24h-3.13v1.09h1.82v1.23h-1.82v1.53h3.26v1.24Z"/>
    <path class="st1" d="M75.87,97.03c0,2.04-1.15,3.27-2.79,3.27s-2.78-1.21-2.78-3.25,1.15-3.27,2.8-3.27,2.77,1.21,2.77,3.25ZM74.57,97.04c0-1.28-.61-2.01-1.5-2.01s-1.47.71-1.47,2,.61,2.01,1.5,2.01,1.47-.71,1.47-2Z"/>
    <path class="st1" d="M82.04,100.2h-1.13l-2.32-3.45c-.15-.23-.36-.55-.44-.71,0,.24.02,1.03.02,1.38v2.78h-1.25v-6.32h1.21l2.24,3.34c.15.23.36.55.44.71,0-.24-.02-1.03-.02-1.38v-2.67h1.25v6.32Z"/>
    <path class="st1" d="M90.32,95.12h-1.82v5.08h-1.26v-5.08h-1.82v-1.25h4.9v1.25Z"/>
    <path class="st1" d="M96.06,100.2h-1.39l-.5-1.41h-2.31l-.5,1.41h-1.35l2.42-6.32h1.23l2.4,6.32ZM93.73,97.58l-.41-1.15c-.13-.37-.25-.75-.32-.98-.06.24-.19.61-.32.98l-.41,1.15h1.45Z"/>
    <path class="st1" d="M102.13,100.2h-1.51l-.57-.96c-.23-.38-.57-1-.69-1.24-.11.23-.45.84-.69,1.24l-.57.96h-1.51l2.01-3.23-1.92-3.09h1.51l.48.81c.23.38.57,1,.69,1.24.12-.23.45-.84.69-1.24l.48-.81h1.51l-1.92,3.09,2.01,3.23Z"/>
    <path class="st1" d="M108.72,100.2h-1.39l-.5-1.41h-2.31l-.5,1.41h-1.35l2.42-6.32h1.23l2.4,6.32ZM106.4,97.58l-.41-1.15c-.13-.37-.25-.75-.32-.98-.06.24-.19.61-.32.98l-.41,1.15h1.45Z"/>
    <path class="st1" d="M113.3,95.12h-1.82v5.08h-1.26v-5.08h-1.82v-1.25h4.9v1.25Z"/>
    <path class="st1" d="M115.65,100.2h-1.26v-6.32h1.26v6.32Z"/>
    <path class="st1" d="M122.36,97.03c0,2.04-1.15,3.27-2.79,3.27s-2.78-1.21-2.78-3.25,1.15-3.27,2.8-3.27,2.77,1.21,2.77,3.25ZM121.06,97.04c0-1.28-.61-2.01-1.5-2.01s-1.47.71-1.47,2,.61,2.01,1.5,2.01,1.47-.71,1.47-2Z"/>
    <path class="st1" d="M128.53,100.2h-1.13l-2.32-3.45c-.15-.23-.36-.55-.44-.71,0,.24.02,1.03.02,1.38v2.78h-1.25v-6.32h1.21l2.24,3.34c.15.23.36.55.44.71,0-.24-.02-1.03-.02-1.38v-2.67h1.25v6.32Z"/>
    <path class="st1" d="M137.93,100.2h-1.39l-.5-1.41h-2.31l-.5,1.41h-1.35l2.42-6.32h1.23l2.4,6.32ZM135.6,97.58l-.41-1.15c-.13-.37-.25-.75-.32-.98-.06.24-.19.61-.32.98l-.41,1.15h1.45Z"/>
    <path class="st1" d="M144.26,100.2h-1.13l-2.32-3.45c-.15-.23-.36-.55-.44-.71,0,.24.02,1.03.02,1.38v2.78h-1.25v-6.32h1.21l2.24,3.34c.15.23.36.55.44.71,0-.24-.02-1.03-.02-1.38v-2.67h1.25v6.32Z"/>
    <path class="st1" d="M151.04,97.03c0,2.22-1.61,3.16-3.23,3.16h-1.89v-6.32h1.98c1.81,0,3.14.85,3.14,3.16ZM149.74,97.03c0-1.29-.55-1.93-1.89-1.93h-.67v3.87h.62c1.33,0,1.93-.78,1.93-1.93Z"/>
    <path class="st1" d="M159.52,100.2h-4.53v-6.32h4.39v1.24h-3.13v1.09h1.82v1.23h-1.82v1.53h3.26v1.24Z"/>
    <path class="st1" d="M165.39,95.17l-1.17.54c-.23-.43-.59-.69-1.16-.69-.95,0-1.49.83-1.49,2.01s.55,2.01,1.5,2.01c.57,0,.9-.24,1.24-.8l1.07.63c-.43.89-1.19,1.43-2.34,1.43-1.65,0-2.76-1.26-2.76-3.26s1.16-3.26,2.81-3.26c1.19,0,1.92.58,2.31,1.4Z"/>
    <path class="st1" d="M171.69,97.03c0,2.04-1.15,3.27-2.79,3.27s-2.78-1.21-2.78-3.25,1.15-3.27,2.8-3.27,2.77,1.21,2.77,3.25ZM170.39,97.04c0-1.28-.61-2.01-1.5-2.01s-1.47.71-1.47,2,.61,2.01,1.5,2.01,1.47-.71,1.47-2Z"/>
    <path class="st1" d="M178.12,100.2h-1.13l-2.32-3.45c-.15-.23-.36-.55-.44-.71,0,.24.02,1.03.02,1.38v2.78h-1.25v-6.32h1.21l2.24,3.34c.15.23.36.55.44.71,0-.24-.02-1.03-.02-1.38v-2.67h1.25v6.32Z"/>
    <path class="st1" d="M185.01,97.03c0,2.04-1.15,3.27-2.79,3.27s-2.78-1.21-2.78-3.25,1.15-3.27,2.8-3.27,2.77,1.21,2.77,3.25ZM183.71,97.04c0-1.28-.61-2.01-1.5-2.01s-1.47.71-1.47,2,.61,2.01,1.5,2.01,1.47-.71,1.47-2Z"/>
    <path class="st1" d="M192.23,100.2h-1.26v-2.32c0-.34.02-1.15.02-1.39-.09.23-.28.69-.44,1.05l-1.28,2.81-1.28-2.81c-.16-.36-.35-.81-.44-1.05,0,.24.02,1.05.02,1.39v2.32h-1.24v-6.32h1.22l1.32,2.86c.16.35.35.83.43,1.06.08-.23.26-.7.42-1.06l1.27-2.86h1.25v6.32Z"/>
    <path class="st1" d="M195.25,100.2h-1.26v-6.32h1.26v6.32Z"/>
    <path class="st1" d="M201.79,95.17l-1.17.54c-.23-.43-.59-.69-1.16-.69-.95,0-1.49.83-1.49,2.01s.55,2.01,1.5,2.01c.57,0,.9-.24,1.24-.8l1.07.63c-.43.89-1.19,1.43-2.34,1.43-1.65,0-2.76-1.26-2.76-3.26s1.16-3.26,2.81-3.26c1.19,0,1.92.58,2.31,1.4Z"/>
    <path class="st1" d="M210.69,95.88c0,1.46-.98,2.08-2.29,2.08h-1.39v2.24h-1.26v-6.32h2.76c1.19,0,2.18.66,2.18,2.01ZM209.39,95.91c0-.55-.36-.8-.92-.8h-1.46v1.63h1.47c.59,0,.9-.27.9-.82Z"/>
    <path class="st1" d="M217.15,97.03c0,2.04-1.15,3.27-2.79,3.27s-2.78-1.21-2.78-3.25,1.15-3.27,2.8-3.27,2.77,1.21,2.77,3.25ZM215.85,97.04c0-1.28-.61-2.01-1.5-2.01s-1.47.71-1.47,2,.61,2.01,1.5,2.01,1.47-.71,1.47-2Z"/>
    <path class="st1" d="M222.89,100.2h-4.44v-6.32h1.27v5.08h3.17v1.25Z"/>
    <path class="st1" d="M225.45,100.2h-1.26v-6.32h1.26v6.32Z"/>
    <path class="st1" d="M231.99,95.17l-1.17.54c-.23-.43-.59-.69-1.16-.69-.95,0-1.49.83-1.49,2.01s.55,2.01,1.5,2.01c.57,0,.9-.24,1.24-.8l1.07.63c-.43.89-1.19,1.43-2.34,1.43-1.65,0-2.76-1.26-2.76-3.26s1.16-3.26,2.81-3.26c1.19,0,1.92.58,2.31,1.4Z"/>
    <path class="st1" d="M238.39,93.87l-2.39,3.82v2.5h-1.26v-2.48l-2.39-3.85h1.46l.89,1.5c.23.38.57,1,.69,1.24.12-.23.45-.84.69-1.24l.89-1.5h1.44Z"/>
  </g>
  <path class="st0" d="M62.1,21.66h13.38v66.33h-13.38V21.66Z"/>
  <path class="st1" d="M41.91,38.87h13.38v49.12h-13.38v-49.12Z"/>
  <path class="st1" d="M21.72,56.07h13.38v31.92h-13.38v-31.92Z"/>
  <path class="st0" d="M132.1,33.5h-18.29v54.49h-13.38v-54.49h-18.29v-11.84h49.96v11.84Z"/>
  <path class="st0" d="M181.63,76.15v11.84h-42.45V21.66h41.59v11.84h-28.21v15.79h24.74v12.03h-24.74v14.83h29.07Z"/>
  <path class="st0" d="M235.49,43.32c0,10.88-6.64,21.47-21.66,21.47h-13.67v23.2h-13.38V21.66h27.05c15.02,0,21.66,10.78,21.66,21.66ZM222.01,43.32c0-4.81-2.41-9.82-8.66-9.82h-13.19v19.54h13c6.45,0,8.86-5.01,8.86-9.72Z"/>
</svg>