<svg id="Layer_1" data-name="Layer 1" xmlns="http://www.w3.org/2000/svg" viewBox="0 0 264 68"><defs><style>.cls-1,.cls-2{fill:#fff;}.cls-1{stroke:#fff;stroke-miterlimit:10;stroke-width:0.75px;}</style></defs><title>amulya</title><path class="cls-1" d="M13,23.68H4.74L1,19.76l3.74-3.92H13ZM5.32,22.33h6.3V17.19H5.32L2.87,19.76Z"/><path class="cls-1" d="M26.35,23.68H18.12V15.84h8.24l3.74,3.92Zm-6.88-1.35h6.3l2.45-2.57-2.45-2.57h-6.3Z"/><path class="cls-1" d="M19.47,23.68H11.62V15.84h7.85ZM13,22.33h5.14V17.19H13Z"/><path class="cls-1" d="M19.47,17.19H11.62V9l3.92-3.74L19.47,9ZM13,15.84h5.14V9.53L15.55,7.08,13,9.53Z"/><path class="cls-1" d="M15.55,34.3l-3.92-3.74V22.33h7.85v8.24ZM13,30l2.57,2.45L18.12,30v-6.3H13Z"/><path class="cls-1" d="M40.86,23.68H32.63l-3.74-3.92,3.74-3.92h8.24Zm-7.66-1.35h6.3V17.19h-6.3l-2.45,2.57Z"/><path class="cls-1" d="M54.24,23.68H46V15.84h8.24L58,19.76Zm-6.88-1.35h6.3l2.45-2.57-2.45-2.57h-6.3Z"/><path class="cls-1" d="M47.36,23.68H39.51V15.84h7.85Zm-6.5-1.35H46V17.19H40.86Z"/><path class="cls-1" d="M47.36,17.19H39.51V9l3.92-3.74L47.36,9Zm-6.5-1.35H46V9.53L43.43,7.08,40.86,9.53Z"/><path class="cls-1" d="M43.43,34.3l-3.92-3.74V22.33h7.85v8.24ZM40.86,30l2.57,2.45L46,30v-6.3H40.86Z"/><path class="cls-1" d="M13,51.57H4.74L1,47.65l3.74-3.92H13ZM5.32,50.22h6.3V45.08H5.32L2.87,47.65Z"/><path class="cls-1" d="M26.35,51.57H18.12V43.72h8.24l3.74,3.92Zm-6.88-1.35h6.3l2.45-2.57-2.45-2.57h-6.3Z"/><path class="cls-1" d="M19.47,51.57H11.62V43.72h7.85ZM13,50.22h5.14V45.08H13Z"/><path class="cls-1" d="M19.47,45.08H11.62V36.84l3.92-3.74,3.92,3.74ZM13,43.72h5.14v-6.3L15.55,35,13,37.42Z"/><path class="cls-1" d="M15.55,62.19l-3.92-3.74V50.22h7.85v8.24ZM13,57.88l2.57,2.45,2.57-2.45v-6.3H13Z"/><path class="cls-1" d="M40.86,51.57H32.63l-3.74-3.92,3.74-3.92h8.24Zm-7.66-1.35h6.3V45.08h-6.3l-2.45,2.57Z"/><path class="cls-1" d="M54.24,51.57H46V43.72h8.24L58,47.65Zm-6.88-1.35h6.3l2.45-2.57-2.45-2.57h-6.3Z"/><path class="cls-1" d="M47.36,51.57H39.51V43.72h7.85Zm-6.5-1.35H46V45.08H40.86Z"/><path class="cls-1" d="M47.36,45.08H39.51V36.84l3.92-3.74,3.92,3.74Zm-6.5-1.35H46v-6.3L43.43,35l-2.57,2.45Z"/><path class="cls-1" d="M43.43,62.19l-3.92-3.74V50.22h7.85v8.24Zm-2.57-4.32,2.57,2.45L46,57.88v-6.3H40.86Z"/><path class="cls-2" d="M85.65,53a8.4,8.4,0,0,1-.58-1.58q-.24-.89-.41-1.89a12.52,12.52,0,0,1-1.82,1.61,12.68,12.68,0,0,1-2.28,1.32,13.76,13.76,0,0,1-2.76.89,15.45,15.45,0,0,1-3.26.33,15.94,15.94,0,0,1-5.23-.82,12.43,12.43,0,0,1-4.1-2.3A10.45,10.45,0,0,1,62.52,47a10.3,10.3,0,0,1-1-4.44,10.59,10.59,0,0,1,4.38-9.08Q70.31,30.32,79,30.32h5.32v-2.2a5.39,5.39,0,0,0-1.75-4.24,7.34,7.34,0,0,0-5-1.56,6.08,6.08,0,0,0-4.26,1.25,4.37,4.37,0,0,0-1.34,3.35H62.38a10,10,0,0,1,1-4.5,11,11,0,0,1,3.05-3.74,15.33,15.33,0,0,1,4.91-2.56A21.44,21.44,0,0,1,78,15.18,22.84,22.84,0,0,1,84.3,16a15,15,0,0,1,5,2.44,11.22,11.22,0,0,1,3.33,4.07,12.77,12.77,0,0,1,1.2,5.68V44.11a26.76,26.76,0,0,0,.38,4.94,12.6,12.6,0,0,0,1.1,3.36V53Zm-9.09-6.69A10,10,0,0,0,79.23,46a10.3,10.3,0,0,0,2.23-.89,7.9,7.9,0,0,0,1.72-1.25,6.56,6.56,0,0,0,1.13-1.42V36H79.44a14.69,14.69,0,0,0-3.81.43,7.28,7.28,0,0,0-2.57,1.2,4.79,4.79,0,0,0-1.48,1.85,5.71,5.71,0,0,0-.48,2.35A4.19,4.19,0,0,0,72.46,45,5.81,5.81,0,0,0,76.56,46.31Z"/><path class="cls-2" d="M104.58,15.87l.27,4.5a9.29,9.29,0,0,1,2.93-3.79,7.41,7.41,0,0,1,4.55-1.39q4.49,0,5.87,3.95a8.3,8.3,0,0,1,2.8-2.9,7.67,7.67,0,0,1,4.1-1,8,8,0,0,1,3.14.62,6.45,6.45,0,0,1,2.54,2,9.79,9.79,0,0,1,1.68,3.5,19.67,19.67,0,0,1,.6,5.23V53h-8.68V26.47a5.77,5.77,0,0,0-.22-1.75,2.79,2.79,0,0,0-.6-1.08,2,2,0,0,0-.87-.55,3.39,3.39,0,0,0-1-.15,2.94,2.94,0,0,0-1.68.46,3.08,3.08,0,0,0-1.06,1.25V53h-8.41V26.44a6.22,6.22,0,0,0-.21-1.75,2.6,2.6,0,0,0-.57-1.06,2,2,0,0,0-.84-.53,3.34,3.34,0,0,0-1-.15,2.5,2.5,0,0,0-1.77.62,4.12,4.12,0,0,0-1,1.65V53H96.38V15.87Z"/><path class="cls-2" d="M158.88,47.79a14.32,14.32,0,0,1-4.55,4.36,11.19,11.19,0,0,1-5.82,1.58,15.07,15.07,0,0,1-5.28-.89A10.13,10.13,0,0,1,139.11,50a13.39,13.39,0,0,1-2.66-4.94,24.25,24.25,0,0,1-.94-7.22v-22h9.54v22a18.78,18.78,0,0,0,.33,3.81,6.14,6.14,0,0,0,1,2.49,4,4,0,0,0,1.89,1.36,8.61,8.61,0,0,0,2.85.41,8.85,8.85,0,0,0,4.63-1.08,7,7,0,0,0,2.71-3v-26h9.57V53h-8.65Z"/><path class="cls-2" d="M169.73.29h20.76v45h10.64V53h-31.4V45.25h11.12V8.08H169.73Z"/><path class="cls-2" d="M211.34,37.42l1.1,4,9.88-25.53h10.54L214,58.56a28.49,28.49,0,0,1-1.6,3.05A14.35,14.35,0,0,1,210,64.67,12.88,12.88,0,0,1,206.38,67a12,12,0,0,1-5,1q-.69,0-1.27-.05T199,67.81q-.55-.09-1.08-.21l-1.15-.29L197.92,60q.58,0,1.49.05t1.46.05a3.17,3.17,0,0,0,2-.69,8.11,8.11,0,0,0,1.49-1.51,13.09,13.09,0,0,0,1-1.51q.38-.69.51-.69l2.3-4.32L192.47,15.87H202.9Z"/><path class="cls-2" d="M254.18,53a8.4,8.4,0,0,1-.58-1.58q-.24-.89-.41-1.89a12.52,12.52,0,0,1-1.82,1.61,12.68,12.68,0,0,1-2.28,1.32,13.76,13.76,0,0,1-2.76.89,15.45,15.45,0,0,1-3.26.33,15.94,15.94,0,0,1-5.23-.82,12.43,12.43,0,0,1-4.1-2.3A10.45,10.45,0,0,1,231,47a10.3,10.3,0,0,1-1-4.44,10.59,10.59,0,0,1,4.38-9.08q4.38-3.21,13.06-3.21h5.32v-2.2a5.39,5.39,0,0,0-1.75-4.24,7.34,7.34,0,0,0-5-1.56,6.08,6.08,0,0,0-4.26,1.25,4.37,4.37,0,0,0-1.34,3.35h-9.54a10,10,0,0,1,1-4.5A11,11,0,0,1,235,18.68a15.33,15.33,0,0,1,4.91-2.56,21.44,21.44,0,0,1,6.64-.94,22.84,22.84,0,0,1,6.26.82,15,15,0,0,1,5,2.44,11.22,11.22,0,0,1,3.33,4.07,12.77,12.77,0,0,1,1.2,5.68V44.11a26.76,26.76,0,0,0,.38,4.94,12.6,12.6,0,0,0,1.1,3.36V53Zm-9.09-6.69a10,10,0,0,0,2.68-.34,10.3,10.3,0,0,0,2.23-.89,7.9,7.9,0,0,0,1.72-1.25,6.56,6.56,0,0,0,1.13-1.42V36H248a14.69,14.69,0,0,0-3.81.43,7.28,7.28,0,0,0-2.57,1.2,4.79,4.79,0,0,0-1.48,1.85,5.71,5.71,0,0,0-.48,2.35A4.19,4.19,0,0,0,241,45,5.81,5.81,0,0,0,245.09,46.31Z"/></svg>