<svg width="125" height="54" viewBox="0 0 125 54" fill="none" xmlns="http://www.w3.org/2000/svg">
<path d="M0 22.25C0 16.8652 4.36522 12.5 9.75 12.5V12.5C15.1348 12.5 19.5 16.8652 19.5 22.25V32H9.75C4.36522 32 0 27.6348 0 22.25V22.25Z" fill="white"/>
<path d="M5.25006 39.125C5.25006 35.19 8.44003 32 12.3751 32H19.5001V39.125C19.5001 43.0601 16.3101 46.25 12.3751 46.25V46.25C8.44003 46.25 5.25006 43.0601 5.25006 39.125V39.125Z" fill="white"/>
<path d="M37.14 18.6C39.12 18.6 40.73 19.04 41.97 19.92C43.21 20.78 43.83 22.24 43.83 24.3C43.83 25.06 43.65 25.75 43.29 26.37C42.95 26.97 42.5 27.49 41.94 27.93C42.86 28.41 43.61 29.06 44.19 29.88C44.79 30.7 45.09 31.74 45.09 33C45.09 34.88 44.43 36.35 43.11 37.41C41.81 38.47 40.07 39 37.89 39H29.52V18.6H37.14ZM36.57 21.84H33.39V26.91H36.27C37.35 26.91 38.19 26.71 38.79 26.31C39.41 25.89 39.72 25.24 39.72 24.36C39.72 23.4 39.44 22.74 38.88 22.38C38.32 22.02 37.55 21.84 36.57 21.84ZM37.86 30.06H33.39V35.79H37.59C38.63 35.79 39.46 35.55 40.08 35.07C40.72 34.59 41.04 33.91 41.04 33.03C41.04 32.07 40.75 31.34 40.17 30.84C39.59 30.32 38.82 30.06 37.86 30.06ZM55.031 39.36C52.511 39.36 50.521 38.67 49.061 37.29C47.621 35.91 46.901 34.06 46.901 31.74C46.901 29.42 47.551 27.56 48.851 26.16C50.171 24.76 51.961 24.06 54.221 24.06C56.501 24.06 58.171 24.82 59.231 26.34C60.311 27.84 60.851 29.62 60.851 31.68V32.88H51.041C51.221 33.84 51.661 34.61 52.361 35.19C53.061 35.75 53.981 36.03 55.121 36.03C55.781 36.03 56.371 35.95 56.891 35.79C57.431 35.61 58.051 35.36 58.751 35.04L59.891 37.86C59.211 38.38 58.381 38.76 57.401 39C56.441 39.24 55.651 39.36 55.031 39.36ZM57.161 30.27C56.961 29.29 56.601 28.57 56.081 28.11C55.561 27.63 54.911 27.39 54.131 27.39C53.331 27.39 52.661 27.64 52.121 28.14C51.581 28.62 51.231 29.33 51.071 30.27H57.161ZM67.4787 18.45V27.24H75.5187V18.6H79.3887V39H75.5187V30.36H67.4787V39H63.6087V18.6L67.4787 18.45ZM90.4087 39.36C87.8887 39.36 85.8987 38.67 84.4387 37.29C82.9987 35.91 82.2787 34.06 82.2787 31.74C82.2787 29.42 82.9287 27.56 84.2287 26.16C85.5487 24.76 87.3387 24.06 89.5987 24.06C91.8787 24.06 93.5487 24.82 94.6087 26.34C95.6887 27.84 96.2287 29.62 96.2287 31.68V32.88H86.4187C86.5987 33.84 87.0387 34.61 87.7387 35.19C88.4387 35.75 89.3587 36.03 90.4987 36.03C91.1587 36.03 91.7487 35.95 92.2687 35.79C92.8087 35.61 93.4287 35.36 94.1287 35.04L95.2687 37.86C94.5887 38.38 93.7587 38.76 92.7787 39C91.8187 39.24 91.0287 39.36 90.4087 39.36ZM92.5387 30.27C92.3387 29.29 91.9787 28.57 91.4587 28.11C90.9387 27.63 90.2887 27.39 89.5087 27.39C88.7087 27.39 88.0387 27.64 87.4987 28.14C86.9587 28.62 86.6087 29.33 86.4487 30.27H92.5387ZM106.306 24.45L107.086 27.57C106.426 27.57 105.656 27.76 104.776 28.14C103.916 28.52 103.066 29.08 102.226 29.82V39H98.3264V24.45H100.366L101.656 26.58C102.256 26.06 102.986 25.58 103.846 25.14C104.706 24.68 105.526 24.45 106.306 24.45ZM115.228 27.21C113.868 27.21 112.918 27.69 112.378 28.65C111.858 29.61 111.598 30.6 111.598 31.62C111.598 32.76 111.838 33.78 112.318 34.68C112.798 35.58 113.768 36.03 115.228 36.03C115.688 36.03 116.168 35.93 116.668 35.73C117.188 35.51 117.668 35.26 118.108 34.98V28.26C117.668 27.96 117.188 27.71 116.668 27.51C116.168 27.31 115.688 27.21 115.228 27.21ZM122.038 17.82V39H119.998L118.918 37.59C118.258 38.15 117.478 38.59 116.578 38.91C115.698 39.21 114.898 39.36 114.178 39.36C112.058 39.36 110.428 38.62 109.288 37.14C108.148 35.66 107.578 33.82 107.578 31.62C107.578 29.42 108.178 27.58 109.378 26.1C110.598 24.62 112.258 23.88 114.358 23.88C114.898 23.88 115.508 23.98 116.188 24.18C116.868 24.36 117.508 24.62 118.108 24.96V18.15L122.038 17.82Z" fill="white"/>
</svg>
