<svg width="138" height="35" viewBox="0 0 138 35" fill="none" xmlns="http://www.w3.org/2000/svg">
<path d="M0 10.25C0 4.86522 4.36522 0.5 9.75 0.5V0.5C15.1348 0.5 19.5 4.86522 19.5 10.25V20H9.75C4.36522 20 0 15.6348 0 10.25V10.25Z" fill="white"/>
<path d="M5.25006 27.125C5.25006 23.19 8.44003 20 12.3751 20H19.5001V27.125C19.5001 31.0601 16.3101 34.25 12.3751 34.25V34.25C8.44003 34.25 5.25006 31.0601 5.25006 27.125V27.125Z" fill="white"/>
<path d="M35.168 5.52C37.544 5.52 39.476 6.048 40.964 7.104C42.452 8.136 43.196 9.888 43.196 12.36C43.196 13.272 42.98 14.1 42.548 14.844C42.14 15.564 41.6 16.188 40.928 16.716C42.032 17.292 42.932 18.072 43.628 19.056C44.348 20.04 44.708 21.288 44.708 22.8C44.708 25.056 43.916 26.82 42.332 28.092C40.772 29.364 38.684 30 36.068 30H26.024V5.52H35.168ZM34.484 9.408H30.668V15.492H34.124C35.42 15.492 36.428 15.252 37.148 14.772C37.892 14.268 38.264 13.488 38.264 12.432C38.264 11.28 37.928 10.488 37.256 10.056C36.584 9.624 35.66 9.408 34.484 9.408ZM36.032 19.272H30.668V26.148H35.708C36.956 26.148 37.952 25.86 38.696 25.284C39.464 24.708 39.848 23.892 39.848 22.836C39.848 21.684 39.5 20.808 38.804 20.208C38.108 19.584 37.184 19.272 36.032 19.272Z" fill="white"/>
<path d="M56.6372 30.432C53.6132 30.432 51.2252 29.604 49.4732 27.948C47.7452 26.292 46.8812 24.072 46.8812 21.288C46.8812 18.504 47.6612 16.272 49.2212 14.592C50.8052 12.912 52.9532 12.072 55.6652 12.072C58.4012 12.072 60.4052 12.984 61.6772 14.808C62.9732 16.608 63.6212 18.744 63.6212 21.216V22.656H51.8492C52.0652 23.808 52.5932 24.732 53.4332 25.428C54.2732 26.1 55.3772 26.436 56.7452 26.436C57.5372 26.436 58.2452 26.34 58.8692 26.148C59.5172 25.932 60.2612 25.632 61.1012 25.248L62.4692 28.632C61.6532 29.256 60.6572 29.712 59.4812 30C58.3292 30.288 57.3812 30.432 56.6372 30.432ZM59.1932 19.524C58.9532 18.348 58.5212 17.484 57.8972 16.932C57.2732 16.356 56.4932 16.068 55.5572 16.068C54.5972 16.068 53.7932 16.368 53.1452 16.968C52.4972 17.544 52.0772 18.396 51.8852 19.524H59.1932Z" fill="white"/>
<path d="M71.5744 5.34V15.888H81.2224V5.52H85.8664V30H81.2224V19.632H71.5744V30H66.9304V5.52L71.5744 5.34Z" fill="white"/>
<path d="M99.0905 30.432C96.0665 30.432 93.6785 29.604 91.9265 27.948C90.1985 26.292 89.3345 24.072 89.3345 21.288C89.3345 18.504 90.1145 16.272 91.6745 14.592C93.2585 12.912 95.4065 12.072 98.1185 12.072C100.855 12.072 102.859 12.984 104.131 14.808C105.427 16.608 106.075 18.744 106.075 21.216V22.656H94.3025C94.5185 23.808 95.0465 24.732 95.8865 25.428C96.7265 26.1 97.8305 26.436 99.1985 26.436C99.9905 26.436 100.699 26.34 101.323 26.148C101.971 25.932 102.715 25.632 103.555 25.248L104.923 28.632C104.107 29.256 103.111 29.712 101.935 30C100.783 30.288 99.8345 30.432 99.0905 30.432ZM101.647 19.524C101.407 18.348 100.975 17.484 100.351 16.932C99.7265 16.356 98.9465 16.068 98.0105 16.068C97.0505 16.068 96.2465 16.368 95.5985 16.968C94.9505 17.544 94.5305 18.396 94.3385 19.524H101.647Z" fill="white"/>
<path d="M118.168 12.54L119.104 16.284C118.312 16.284 117.388 16.512 116.332 16.968C115.3 17.424 114.28 18.096 113.272 18.984V30H108.592V12.54H111.04L112.588 15.096C113.308 14.472 114.184 13.896 115.216 13.368C116.248 12.816 117.232 12.54 118.168 12.54Z" fill="white"/>
<path d="M128.874 15.852C127.242 15.852 126.102 16.428 125.454 17.58C124.83 18.732 124.518 19.92 124.518 21.144C124.518 22.512 124.806 23.736 125.382 24.816C125.958 25.896 127.122 26.436 128.874 26.436C129.426 26.436 130.002 26.316 130.602 26.076C131.226 25.812 131.802 25.512 132.33 25.176V17.112C131.802 16.752 131.226 16.452 130.602 16.212C130.002 15.972 129.426 15.852 128.874 15.852ZM137.046 4.584V30H134.598L133.302 28.308C132.51 28.98 131.574 29.508 130.494 29.892C129.438 30.252 128.478 30.432 127.614 30.432C125.07 30.432 123.114 29.544 121.746 27.768C120.378 25.992 119.694 23.784 119.694 21.144C119.694 18.504 120.414 16.296 121.854 14.52C123.318 12.744 125.31 11.856 127.83 11.856C128.478 11.856 129.21 11.976 130.026 12.216C130.842 12.432 131.61 12.744 132.33 13.152V4.98L137.046 4.584Z" fill="white"/>
</svg>
