<svg width="255" height="41" viewBox="0 0 255 41" fill="none" xmlns="http://www.w3.org/2000/svg">
<path d="M54.6094 26.3027C54.6094 25.8457 54.5391 25.4355 54.3984 25.0723C54.2695 24.6973 54.0234 24.3574 53.6602 24.0527C53.2969 23.7363 52.7871 23.4258 52.1309 23.1211C51.4746 22.8164 50.625 22.5 49.582 22.1719C48.4219 21.7969 47.3203 21.375 46.2773 20.9062C45.2461 20.4375 44.332 19.8926 43.5352 19.2715C42.75 18.6387 42.1289 17.9062 41.6719 17.0742C41.2266 16.2422 41.0039 15.2754 41.0039 14.1738C41.0039 13.1074 41.2383 12.1406 41.707 11.2734C42.1758 10.3945 42.832 9.64453 43.6758 9.02344C44.5195 8.39062 45.5156 7.9043 46.6641 7.56445C47.8242 7.22461 49.0957 7.05469 50.4785 7.05469C52.3652 7.05469 54.0117 7.39453 55.418 8.07422C56.8242 8.75391 57.9141 9.68555 58.6875 10.8691C59.4727 12.0527 59.8652 13.4062 59.8652 14.9297H54.627C54.627 14.1797 54.4688 13.5234 54.1523 12.9609C53.8477 12.3867 53.3789 11.9355 52.7461 11.6074C52.125 11.2793 51.3398 11.1152 50.3906 11.1152C49.4766 11.1152 48.7148 11.2559 48.1055 11.5371C47.4961 11.8066 47.0391 12.1758 46.7344 12.6445C46.4297 13.1016 46.2773 13.6172 46.2773 14.1914C46.2773 14.625 46.3828 15.0176 46.5938 15.3691C46.8164 15.7207 47.1445 16.0488 47.5781 16.3535C48.0117 16.6582 48.5449 16.9453 49.1777 17.2148C49.8105 17.4844 50.543 17.748 51.375 18.0059C52.7695 18.4277 53.9941 18.9023 55.0488 19.4297C56.1152 19.957 57.0059 20.5488 57.7207 21.2051C58.4355 21.8613 58.9746 22.6055 59.3379 23.4375C59.7012 24.2695 59.8828 25.2129 59.8828 26.2676C59.8828 27.3809 59.666 28.377 59.2324 29.2559C58.7988 30.1348 58.1719 30.8789 57.3516 31.4883C56.5312 32.0977 55.5527 32.5605 54.416 32.877C53.2793 33.1934 52.0078 33.3516 50.6016 33.3516C49.3359 33.3516 48.0879 33.1875 46.8574 32.8594C45.627 32.5195 44.5078 32.0098 43.5 31.3301C42.5039 30.6504 41.707 29.7832 41.1094 28.7285C40.5117 27.6738 40.2129 26.4258 40.2129 24.9844H45.5039C45.5039 25.7812 45.627 26.4551 45.873 27.0059C46.1191 27.5566 46.4648 28.002 46.9102 28.3418C47.3672 28.6816 47.9062 28.9277 48.5273 29.0801C49.1602 29.2324 49.8516 29.3086 50.6016 29.3086C51.5156 29.3086 52.2656 29.1797 52.8516 28.9219C53.4492 28.6641 53.8887 28.3066 54.1699 27.8496C54.4629 27.3926 54.6094 26.877 54.6094 26.3027ZM74.0423 28.4473V13.9805H79.1048V33H74.3412L74.0423 28.4473ZM74.6048 24.5449L76.099 24.5098C76.099 25.7754 75.9525 26.9531 75.6595 28.043C75.3666 29.1211 74.9271 30.0586 74.3412 30.8555C73.7552 31.6406 73.017 32.2559 72.1263 32.7012C71.2357 33.1348 70.1869 33.3516 68.9798 33.3516C68.0541 33.3516 67.1986 33.2227 66.4134 32.9648C65.64 32.6953 64.972 32.2793 64.4095 31.7168C63.8587 31.1426 63.4252 30.4102 63.1087 29.5195C62.8041 28.6172 62.6517 27.5332 62.6517 26.2676V13.9805H67.7142V26.3027C67.7142 26.8652 67.7787 27.3398 67.9076 27.7266C68.0482 28.1133 68.2416 28.4297 68.4877 28.6758C68.7337 28.9219 69.0209 29.0977 69.349 29.2031C69.6888 29.3086 70.0638 29.3613 70.474 29.3613C71.517 29.3613 72.3373 29.1504 72.9349 28.7285C73.5443 28.3066 73.972 27.7324 74.2181 27.0059C74.4759 26.2676 74.6048 25.4473 74.6048 24.5449ZM92.8952 27.7441C92.8952 27.3809 92.7898 27.0527 92.5788 26.7598C92.3679 26.4668 91.9753 26.1973 91.4011 25.9512C90.8386 25.6934 90.0241 25.459 88.9577 25.248C87.9968 25.0371 87.1003 24.7734 86.2683 24.457C85.448 24.1289 84.7331 23.7363 84.1237 23.2793C83.5261 22.8223 83.0573 22.2832 82.7175 21.6621C82.3777 21.0293 82.2077 20.3086 82.2077 19.5C82.2077 18.7031 82.3777 17.9531 82.7175 17.25C83.0691 16.5469 83.5671 15.9258 84.2116 15.3867C84.8679 14.8359 85.6648 14.4082 86.6023 14.1035C87.5515 13.7871 88.6179 13.6289 89.8015 13.6289C91.4538 13.6289 92.8718 13.8926 94.0554 14.4199C95.2507 14.9473 96.1648 15.6738 96.7976 16.5996C97.4421 17.5137 97.7644 18.5566 97.7644 19.7285H92.7019C92.7019 19.2363 92.5964 18.7969 92.3855 18.4102C92.1862 18.0117 91.8698 17.7012 91.4362 17.4785C91.0144 17.2441 90.4636 17.127 89.7839 17.127C89.2214 17.127 88.7351 17.2266 88.3249 17.4258C87.9148 17.6133 87.5984 17.8711 87.3757 18.1992C87.1648 18.5156 87.0593 18.8672 87.0593 19.2539C87.0593 19.5469 87.1179 19.8105 87.2351 20.0449C87.364 20.2676 87.5691 20.4727 87.8503 20.6602C88.1316 20.8477 88.4948 21.0234 88.9402 21.1875C89.3972 21.3398 89.9597 21.4805 90.6277 21.6094C91.9987 21.8906 93.2234 22.2598 94.3015 22.7168C95.3796 23.1621 96.2351 23.7715 96.8679 24.5449C97.5007 25.3066 97.8171 26.3086 97.8171 27.5508C97.8171 28.3945 97.6296 29.168 97.2546 29.8711C96.8796 30.5742 96.3405 31.1895 95.6374 31.7168C94.9343 32.2324 94.0905 32.6367 93.1062 32.9297C92.1335 33.2109 91.0378 33.3516 89.8191 33.3516C88.0495 33.3516 86.5495 33.0352 85.3191 32.4023C84.1003 31.7695 83.1745 30.9668 82.5417 29.9941C81.9206 29.0098 81.6101 28.002 81.6101 26.9707H86.4089C86.4323 27.6621 86.6081 28.2188 86.9362 28.6406C87.2761 29.0625 87.7038 29.3672 88.2195 29.5547C88.7468 29.7422 89.3152 29.8359 89.9245 29.8359C90.5808 29.8359 91.1257 29.748 91.5593 29.5723C91.9929 29.3848 92.321 29.1387 92.5437 28.834C92.778 28.5176 92.8952 28.1543 92.8952 27.7441ZM111.977 40.3125V17.8652L112.627 13.9805H117.074V40.3125H111.977ZM99.9532 23.6836V23.3145C99.9532 21.8613 100.111 20.543 100.428 19.3594C100.756 18.1641 101.236 17.1445 101.869 16.3008C102.502 15.4453 103.275 14.7891 104.19 14.332C105.115 13.8633 106.182 13.6289 107.389 13.6289C108.549 13.6289 109.551 13.8633 110.395 14.332C111.238 14.8008 111.947 15.4629 112.522 16.3184C113.107 17.1738 113.576 18.1816 113.928 19.3418C114.279 20.502 114.549 21.7734 114.736 23.1562V23.9648C114.561 25.2891 114.291 26.5195 113.928 27.6562C113.576 28.793 113.107 29.7891 112.522 30.6445C111.947 31.5 111.232 32.168 110.377 32.6484C109.533 33.1172 108.525 33.3516 107.354 33.3516C106.17 33.3516 105.115 33.1113 104.19 32.6309C103.275 32.1387 102.502 31.459 101.869 30.5918C101.236 29.7246 100.756 28.7051 100.428 27.5332C100.111 26.3496 99.9532 25.0664 99.9532 23.6836ZM105.016 23.3145V23.6836C105.016 24.4688 105.08 25.207 105.209 25.8984C105.338 26.5781 105.543 27.1816 105.824 27.709C106.117 28.2363 106.492 28.6523 106.949 28.957C107.406 29.25 107.969 29.3965 108.637 29.3965C109.563 29.3965 110.307 29.1973 110.869 28.7988C111.443 28.3887 111.865 27.832 112.135 27.1289C112.416 26.4258 112.58 25.623 112.627 24.7207V22.418C112.592 21.6797 112.492 21.0176 112.328 20.4316C112.176 19.834 111.941 19.3242 111.625 18.9023C111.32 18.4805 110.922 18.1582 110.43 17.9355C109.949 17.7012 109.363 17.584 108.672 17.584C108.016 17.584 107.453 17.7305 106.984 18.0234C106.516 18.3164 106.135 18.7266 105.842 19.2539C105.561 19.7695 105.35 20.373 105.209 21.0645C105.08 21.7559 105.016 22.5059 105.016 23.3145ZM135.857 24.5098H141.113C141.007 26.2324 140.533 27.7617 139.689 29.0977C138.857 30.4336 137.691 31.4766 136.191 32.2266C134.703 32.9766 132.91 33.3516 130.812 33.3516C129.171 33.3516 127.701 33.0703 126.4 32.5078C125.099 31.9336 123.986 31.1133 123.06 30.0469C122.146 28.9805 121.449 27.6914 120.968 26.1797C120.488 24.668 120.247 22.9746 120.247 21.0996V19.3242C120.247 17.4492 120.494 15.7559 120.986 14.2441C121.49 12.7207 122.205 11.4258 123.13 10.3594C124.068 9.29297 125.187 8.47266 126.488 7.89844C127.789 7.32422 129.242 7.03711 130.847 7.03711C132.98 7.03711 134.779 7.42383 136.244 8.19727C137.72 8.9707 138.863 10.0371 139.671 11.3965C140.492 12.7559 140.984 14.3027 141.148 16.0371H135.874C135.816 15.0059 135.611 14.1328 135.259 13.418C134.908 12.6914 134.374 12.1465 133.66 11.7832C132.956 11.4082 132.019 11.2207 130.847 11.2207C129.968 11.2207 129.201 11.3848 128.544 11.7129C127.888 12.041 127.337 12.5391 126.892 13.207C126.447 13.875 126.113 14.7188 125.89 15.7383C125.679 16.7461 125.574 17.9297 125.574 19.2891V21.0996C125.574 22.4238 125.673 23.5898 125.872 24.5977C126.072 25.5938 126.376 26.4375 126.787 27.1289C127.208 27.8086 127.747 28.3242 128.404 28.6758C129.072 29.0156 129.874 29.1855 130.812 29.1855C131.914 29.1855 132.822 29.0098 133.537 28.6582C134.251 28.3066 134.796 27.7852 135.171 27.0938C135.558 26.4023 135.787 25.541 135.857 24.5098ZM143.091 23.6836V23.3145C143.091 21.9199 143.29 20.6367 143.688 19.4648C144.087 18.2812 144.667 17.2559 145.429 16.3887C146.19 15.5215 147.128 14.8477 148.241 14.3672C149.354 13.875 150.632 13.6289 152.073 13.6289C153.514 13.6289 154.798 13.875 155.923 14.3672C157.048 14.8477 157.991 15.5215 158.753 16.3887C159.526 17.2559 160.112 18.2812 160.511 19.4648C160.909 20.6367 161.108 21.9199 161.108 23.3145V23.6836C161.108 25.0664 160.909 26.3496 160.511 27.5332C160.112 28.7051 159.526 29.7305 158.753 30.6094C157.991 31.4766 157.054 32.1504 155.94 32.6309C154.827 33.1113 153.55 33.3516 152.108 33.3516C150.667 33.3516 149.384 33.1113 148.259 32.6309C147.145 32.1504 146.202 31.4766 145.429 30.6094C144.667 29.7305 144.087 28.7051 143.688 27.5332C143.29 26.3496 143.091 25.0664 143.091 23.6836ZM148.153 23.3145V23.6836C148.153 24.4805 148.223 25.2246 148.364 25.916C148.505 26.6074 148.727 27.2168 149.032 27.7441C149.348 28.2598 149.759 28.6641 150.262 28.957C150.766 29.25 151.382 29.3965 152.108 29.3965C152.811 29.3965 153.415 29.25 153.919 28.957C154.423 28.6641 154.827 28.2598 155.132 27.7441C155.436 27.2168 155.659 26.6074 155.8 25.916C155.952 25.2246 156.028 24.4805 156.028 23.6836V23.3145C156.028 22.541 155.952 21.8145 155.8 21.1348C155.659 20.4434 155.43 19.834 155.114 19.3066C154.809 18.7676 154.405 18.3457 153.901 18.041C153.397 17.7363 152.788 17.584 152.073 17.584C151.358 17.584 150.749 17.7363 150.245 18.041C149.753 18.3457 149.348 18.7676 149.032 19.3066C148.727 19.834 148.505 20.4434 148.364 21.1348C148.223 21.8145 148.153 22.541 148.153 23.3145ZM168.817 18.041V33H163.754V13.9805H168.5L168.817 18.041ZM168.078 22.8223H166.707C166.707 21.416 166.889 20.1504 167.252 19.0254C167.615 17.8887 168.125 16.9219 168.781 16.125C169.438 15.3164 170.217 14.7012 171.119 14.2793C172.033 13.8457 173.053 13.6289 174.178 13.6289C175.069 13.6289 175.883 13.7578 176.621 14.0156C177.36 14.2734 177.992 14.6836 178.52 15.2461C179.059 15.8086 179.469 16.5527 179.75 17.4785C180.043 18.4043 180.19 19.5352 180.19 20.8711V33H175.092V20.8535C175.092 20.0098 174.975 19.3535 174.74 18.8848C174.506 18.416 174.16 18.0879 173.703 17.9004C173.258 17.7012 172.707 17.6016 172.051 17.6016C171.371 17.6016 170.779 17.7363 170.276 18.0059C169.783 18.2754 169.373 18.6504 169.045 19.1309C168.729 19.5996 168.488 20.1504 168.324 20.7832C168.16 21.416 168.078 22.0957 168.078 22.8223ZM188.636 18.041V33H183.574V13.9805H188.32L188.636 18.041ZM187.898 22.8223H186.527C186.527 21.416 186.709 20.1504 187.072 19.0254C187.435 17.8887 187.945 16.9219 188.601 16.125C189.257 15.3164 190.037 14.7012 190.939 14.2793C191.853 13.8457 192.873 13.6289 193.998 13.6289C194.888 13.6289 195.703 13.7578 196.441 14.0156C197.179 14.2734 197.812 14.6836 198.339 15.2461C198.878 15.8086 199.289 16.5527 199.57 17.4785C199.863 18.4043 200.009 19.5352 200.009 20.8711V33H194.912V20.8535C194.912 20.0098 194.794 19.3535 194.56 18.8848C194.326 18.416 193.98 18.0879 193.523 17.9004C193.078 17.7012 192.527 17.6016 191.871 17.6016C191.191 17.6016 190.599 17.7363 190.095 18.0059C189.603 18.2754 189.193 18.6504 188.865 19.1309C188.548 19.5996 188.308 20.1504 188.144 20.7832C187.98 21.416 187.898 22.0957 187.898 22.8223ZM212.253 33.3516C210.776 33.3516 209.452 33.1172 208.28 32.6484C207.108 32.168 206.112 31.5059 205.292 30.6621C204.483 29.8184 203.862 28.8398 203.429 27.7266C202.995 26.6016 202.778 25.4062 202.778 24.1406V23.4375C202.778 21.9961 202.983 20.6777 203.393 19.4824C203.804 18.2871 204.39 17.25 205.151 16.3711C205.925 15.4922 206.862 14.8184 207.964 14.3496C209.065 13.8691 210.307 13.6289 211.69 13.6289C213.038 13.6289 214.233 13.8516 215.276 14.2969C216.319 14.7422 217.192 15.375 217.895 16.1953C218.61 17.0156 219.149 18 219.513 19.1484C219.876 20.2852 220.057 21.5508 220.057 22.9453V25.0547H204.94V21.6797H215.083V21.293C215.083 20.5898 214.954 19.9629 214.696 19.4121C214.45 18.8496 214.075 18.4043 213.571 18.0762C213.067 17.748 212.423 17.584 211.638 17.584C210.97 17.584 210.395 17.7305 209.915 18.0234C209.434 18.3164 209.042 18.7266 208.737 19.2539C208.444 19.7812 208.222 20.4023 208.069 21.1172C207.929 21.8203 207.858 22.5938 207.858 23.4375V24.1406C207.858 24.9023 207.964 25.6055 208.175 26.25C208.397 26.8945 208.708 27.4512 209.106 27.9199C209.516 28.3887 210.009 28.752 210.583 29.0098C211.169 29.2676 211.831 29.3965 212.569 29.3965C213.483 29.3965 214.333 29.2207 215.118 28.8691C215.915 28.5059 216.6 27.9609 217.175 27.2344L219.636 29.9062C219.237 30.4805 218.692 31.0312 218.001 31.5586C217.321 32.0859 216.501 32.5195 215.54 32.8594C214.579 33.1875 213.483 33.3516 212.253 33.3516ZM230.438 29.3965C231.059 29.3965 231.61 29.2793 232.09 29.0449C232.571 28.7988 232.946 28.459 233.215 28.0254C233.496 27.5801 233.643 27.0586 233.655 26.4609H238.418C238.406 27.7969 238.049 28.9863 237.346 30.0293C236.643 31.0605 235.699 31.875 234.516 32.4727C233.332 33.0586 232.008 33.3516 230.543 33.3516C229.067 33.3516 227.778 33.1055 226.676 32.6133C225.586 32.1211 224.678 31.4414 223.951 30.5742C223.225 29.6953 222.68 28.6758 222.317 27.5156C221.953 26.3438 221.772 25.0898 221.772 23.7539V23.2441C221.772 21.8965 221.953 20.6426 222.317 19.4824C222.68 18.3105 223.225 17.291 223.951 16.4238C224.678 15.5449 225.586 14.8594 226.676 14.3672C227.766 13.875 229.043 13.6289 230.508 13.6289C232.067 13.6289 233.432 13.9277 234.604 14.5254C235.787 15.123 236.713 15.9785 237.381 17.0918C238.061 18.1934 238.406 19.5 238.418 21.0117H233.655C233.643 20.3789 233.508 19.8047 233.25 19.2891C233.004 18.7734 232.641 18.3633 232.16 18.0586C231.692 17.7422 231.112 17.584 230.42 17.584C229.682 17.584 229.078 17.7422 228.61 18.0586C228.141 18.3633 227.778 18.7852 227.52 19.3242C227.262 19.8516 227.08 20.4551 226.975 21.1348C226.881 21.8027 226.834 22.5059 226.834 23.2441V23.7539C226.834 24.4922 226.881 25.2012 226.975 25.8809C227.069 26.5605 227.244 27.1641 227.502 27.6914C227.772 28.2188 228.141 28.6348 228.61 28.9395C229.078 29.2441 229.688 29.3965 230.438 29.3965ZM250.31 13.9805V17.5664H239.236V13.9805H250.31ZM241.978 9.28711H247.041V27.2695C247.041 27.8203 247.111 28.2422 247.252 28.5352C247.404 28.8281 247.627 29.0332 247.92 29.1504C248.212 29.2559 248.582 29.3086 249.027 29.3086C249.343 29.3086 249.625 29.2969 249.871 29.2734C250.129 29.2383 250.345 29.2031 250.521 29.168L250.539 32.8945C250.105 33.0352 249.636 33.1465 249.132 33.2285C248.629 33.3105 248.072 33.3516 247.462 33.3516C246.349 33.3516 245.377 33.1699 244.545 32.8066C243.724 32.4316 243.091 31.834 242.646 31.0137C242.201 30.1934 241.978 29.1152 241.978 27.7793V9.28711Z" fill="white"/>
<path fill-rule="evenodd" clip-rule="evenodd" d="M0.11136 32.5082C0.0739716 32.5082 0.0368528 32.508 0 32.5076V29.9739C0.036686 29.9744 0.073802 29.9747 0.11136 29.9747C1.83653 29.9747 2.62962 29.4056 3.63344 28.6852L3.6337 28.685C4.77674 27.8646 6.07271 26.9345 8.58303 26.9345C11.0939 26.9345 12.3898 27.8644 13.5329 28.6852C14.2775 29.2196 14.9061 29.6707 15.8852 29.868V25.1882C14.1126 24.9523 13.0563 24.1941 12.1057 23.5119L12.1054 23.5117L12.1049 23.5113L12.1048 23.5113L12.1048 23.5112L12.1048 23.5112L12.1048 23.5112L12.1048 23.5112C11.101 22.791 10.3081 22.2222 8.58303 22.2222C6.85786 22.2222 6.06476 22.7912 5.06095 23.5117L5.06069 23.5119C3.91764 24.3323 2.62167 25.2624 0.11136 25.2624C0.0739716 25.2624 0.0368528 25.2622 0 25.2618V22.7281C0.036686 22.7286 0.073802 22.7289 0.11136 22.7289C1.83632 22.7289 2.62943 22.1596 3.63307 21.4393L3.63344 21.439C4.55378 20.7785 5.57322 20.0469 7.24583 19.7869V15.1199C6.36063 15.333 5.76221 15.7624 5.06095 16.2657L5.06069 16.2659C3.91764 17.0863 2.62167 18.0165 0.11136 18.0165C0.0739716 18.0165 0.0368528 18.0162 0 18.0158V15.4821C0.036686 15.4827 0.073802 15.4829 0.11136 15.4829C1.83631 15.4829 2.62943 14.9137 3.63307 14.1933L3.63344 14.1931C4.77655 13.3726 6.07252 12.4427 8.58303 12.4427C11.0939 12.4427 12.3898 13.3726 13.5329 14.1931L13.5333 14.1933C14.2777 14.7276 14.9063 15.1788 15.8852 15.3762V10.6964C14.1125 10.4605 13.0561 9.7024 12.1055 9.01983L12.1049 9.01942C11.101 8.29915 10.3082 7.73031 8.58307 7.73031C6.85791 7.73031 6.06481 8.29936 5.061 9.01983C3.91789 9.84059 2.62191 10.7705 0.111407 10.7705C0.0740025 10.7705 0.0368682 10.7703 0 10.7699V8.23621C0.0367012 8.23674 0.0738328 8.23701 0.111407 8.23701C1.83657 8.23701 2.62967 7.66796 3.63349 6.94749C4.77659 6.12673 6.07257 5.19678 8.58307 5.19678C11.0939 5.19678 12.3899 6.12673 13.533 6.94749C14.5368 7.66796 15.3299 8.23701 17.0551 8.23701C18.7806 8.23701 19.5737 7.66796 20.5778 6.94749C21.7209 6.12673 23.0169 5.19678 25.5277 5.19678C28.0382 5.19678 29.3342 6.12673 30.4776 6.94749C31.4814 7.66796 32.2745 8.23701 34 8.23701V10.7705C31.4892 10.7705 30.1932 9.84059 29.0501 9.01983L29.0495 9.01942C28.0457 8.29914 27.2529 7.73031 25.5277 7.73031C23.8022 7.73031 23.0091 8.29936 22.0053 9.01983C21.1371 9.643 20.1811 10.3291 18.6721 10.6233V15.262C19.4091 15.0316 19.9522 14.6419 20.5769 14.1936L20.5777 14.1931C21.7209 13.3726 23.0168 12.4427 25.5277 12.4427C28.0381 12.4427 29.334 13.3726 30.4774 14.193L30.4776 14.1931L30.4779 14.1933C31.4816 14.9137 32.2747 15.4829 34 15.4829V18.0165C31.4891 18.0165 30.1932 17.0865 29.0501 16.2657L29.0495 16.2653C28.3193 15.7414 27.7008 15.2977 26.754 15.0946V19.7705C28.4927 20.0148 29.5367 20.7639 30.4774 21.4389L30.4776 21.439L30.4779 21.4393C31.4816 22.1596 32.2747 22.7289 34 22.7289V25.2624C31.4893 25.2624 30.1934 24.3323 29.0503 23.5119L29.0501 23.5117L29.0495 23.5113C28.0456 22.791 27.2528 22.2222 25.5277 22.2222C23.8022 22.2222 23.0091 22.7912 22.0053 23.5117L22.0045 23.5122C21.1365 24.135 20.1806 24.8209 18.6721 25.1152V29.7539C19.4094 29.5235 19.9527 29.1337 20.5777 28.6852L20.578 28.685C21.7211 27.8646 23.017 26.9345 25.5277 26.9345C28.0376 26.9345 29.3336 27.8643 30.4768 28.6846L30.4776 28.6852C31.4814 29.4056 32.2745 29.9747 34 29.9747V32.5082C31.4891 32.5082 30.1932 31.5783 29.0501 30.7578C28.0459 30.037 27.2531 29.468 25.5277 29.468C23.8024 29.468 23.0093 30.0372 22.0056 30.7576L22.0053 30.7578L22.0051 30.7579C20.8617 31.5783 19.5658 32.5082 17.055 32.5082C14.5445 32.5082 13.2485 31.5783 12.1054 30.7578C11.1013 30.037 10.3085 29.468 8.58303 29.468C6.85786 29.468 6.06476 30.037 5.06095 30.7578C3.91784 31.5783 2.62187 32.5082 0.11136 32.5082ZM23.9671 19.8251V15.1798C23.2008 15.4077 22.646 15.8059 22.0053 16.2657L22.0045 16.2663C20.8612 17.0866 19.5653 18.0165 17.055 18.0165C14.5445 18.0165 13.2485 17.0865 12.1054 16.2657L12.1049 16.2653L12.1048 16.2653L12.1048 16.2653C11.4337 15.7838 10.8569 15.3699 10.0327 15.1485V19.8052C11.6392 20.0799 12.6334 20.7934 13.5329 21.439L13.5333 21.4393C14.5369 22.1596 15.3301 22.7289 17.055 22.7289C18.78 22.7289 19.5732 22.1598 20.5769 21.4396L20.5777 21.439C21.4564 20.8084 22.4254 20.113 23.9671 19.8251Z" fill="white"/>
</svg>
