<svg id="Layer_1" data-name="Layer 1" xmlns="http://www.w3.org/2000/svg" viewBox="0 0 376 68"><defs><style>.cls-1{fill:#fff;}</style></defs><title>tia</title><path class="cls-1" d="M257.69.12V1.65h4v63.5H257.9v1.51h13.41V65.18h-3.59V47.12l2.83-3.74,10,21.78H277.7v1.5h24.88v-1.5h-3.68V35.66c0-4.74,1.94-9.23,6.35-9.23,3.59,0,4.73,3.59,4.73,7.34v31.4h-3.88v1.49h14.28v-1.5h-3.94V32.91c0-4.8-3.27-8.49-9.18-8.49-6.19,0-8.24,3.76-8.36,4.3V25.39h-9.86v1.5h3.39V65.16h-5.33L274.71,38s5.46-7.74,7.85-9.62a6.81,6.81,0,0,1,4.73-1.52V25.4H274.59v1.5c1.47,0,2,0,2.44.56.88,1.2-.42,4.25-3.75,9-2.66,3.82-5.56,7.82-5.56,7.82V.12h-10Z"/><polygon class="cls-1" points="346.49 0.13 346.49 1.64 350.55 1.64 350.55 65.16 346.25 65.16 346.25 66.66 376 66.66 376 65.16 371.62 65.16 371.62 0.13 361.28 0.13 361.28 1.64 365.35 1.64 365.35 65.16 356.82 65.16 356.82 0.13 346.49 0.13 346.49 0.13"/><path class="cls-1" d="M247.55,24.42c-10.78,0-14.86,13.11-14.86,22.17,0,11.1,5.63,20.8,15,20.8,7.41,0,10.06-7.93,10.29-16.23h-3.8c-.07,3.94-.08,14.68-6.52,14.68-7.59,0-7.59-12.3-7.59-19.45,0-6.38-.13-20.5,7.52-20.5a5,5,0,0,1,5.13,4.53c0,2.85-2.79,3.33-2.79,6.61a3.52,3.52,0,0,0,3.52,3.7c3.14,0,3.75-3.45,3.75-5.1,0-3.56-2.17-11.21-9.68-11.21Z"/><path class="cls-1" d="M202.68,25.39v1.5H206V57.38c0,6.87,4.89,10.23,8.88,10.23,5.44,0,7.16-2.7,7.73-3.57v2.62h9.89v-1.5h-3.62V25.39h-9.31v1.5h3V56.55c0,4.29-1.14,9-5.5,9-2.66,0-4.85-1.66-4.85-7.88V25.39h-9.55Z"/><path class="cls-1" d="M335.44,65.84c-7.76,0-7.73-11.74-7.73-18.9,0-1.13,0-1.95.06-3.48H346.4a33.22,33.22,0,0,0-2-12.44,10.55,10.55,0,0,0-9.72-6.6h0c-8.83,0-14.41,10.47-14.41,22.26,0,8.94,3.36,20.72,15,20.72,8.37,0,10.66-8.26,11.12-16.3h-3.9C342.49,55.06,341.65,65.84,335.44,65.84Zm-5.83-35.94c.72-2.07,2.17-4.21,4.91-4.21h0c4.7,0,5.24,11.06,5.24,16.18h-12A36.89,36.89,0,0,1,329.61,29.89Z"/><polygon class="cls-1" points="168.54 2.02 168.54 2.02 168.54 2.02 168.54 2.02"/><path class="cls-1" d="M198.05,36.63c-3.62-3.7-6.88-4.49-12.36-5.13v-.19c6.25-.68,14.31-5.78,14.31-14.09C200,5.49,192.09,2,181.4,2H168.54v1.5h4.78V65.27h-4.78v1.5h15.6c10.72,0,18-6.1,18-18.62C202.1,43.77,201.08,39.72,198.05,36.63ZM180,3.52c4.77,0,7.36.58,9.74,2.51,3.41,2.81,3.33,8.07,3.23,12-.15,6.47-3.46,10.55-6.19,11.61a20.89,20.89,0,0,1-6.79.87ZM191.58,61.2c-2.79,4.06-6,4.08-11.53,4.08V32.54c.85,0,1.75,0,2.67,0h0c2.75,0,5.68.47,8.06,3,1.82,2,3.94,4.74,3.94,12.48C194.72,52.07,194.38,57.12,191.58,61.2Z"/><path class="cls-1" d="M54.05,2V18H37V66.21H16.87V18H0V2Z"/><path class="cls-1" d="M79.63,2V66.21H59.49V2Z"/><path class="cls-1" d="M129.87,56.51h-21.4l-3.17,9.7H84.16L107.65,2h23.22l23.4,64.21H133ZM125,41.36l-5.8-17.87-5.8,17.87Z"/></svg>