<svg id="Layer_1" data-name="Layer 1" xmlns="http://www.w3.org/2000/svg" viewBox="0 0 328 68"><defs><style>.cls-1{fill:#fff;}</style></defs><title>wagc</title><path class="cls-1" d="M5,45.43c-.61,0-1.22,0-1.82.07a36.2,36.2,0,0,0,3.2,5.71A19.75,19.75,0,0,1,22.3,61.37a44.68,44.68,0,0,1,2.1-7A25.4,25.4,0,0,0,5,45.43Z"/><path class="cls-1" d="M5,33.14a36.38,36.38,0,0,0-4.85.33,36.2,36.2,0,0,0,.88,5.66,30.47,30.47,0,0,1,26.19,9.37,45.09,45.09,0,0,1,3.24-4.87A36.09,36.09,0,0,0,5,33.14Z"/><path class="cls-1" d="M5,20.92q-1.84,0-3.65.14A36.11,36.11,0,0,0,.27,26.92,42.08,42.08,0,0,1,34.67,38.86,45.27,45.27,0,0,1,39,35.09,47.73,47.73,0,0,0,5,20.92Z"/><path class="cls-1" d="M30.43,66.52a36.5,36.5,0,0,0,5.72.48A30.5,30.5,0,0,1,71,41.31a36.06,36.06,0,0,0,1.23-5.6A36.22,36.22,0,0,0,30.43,66.52Z"/><path class="cls-1" d="M41.66,66.61A36,36,0,0,0,48.27,65,19.76,19.76,0,0,1,64.74,53.3a36.31,36.31,0,0,0,3.72-5.7c-.71-.06-1.42-.09-2.15-.09A25.5,25.5,0,0,0,41.66,66.61Z"/><path class="cls-1" d="M19.13,62.67A36.07,36.07,0,0,0,24.56,65a42.17,42.17,0,0,1,48-35.86,36.33,36.33,0,0,0-.72-5.87A47.88,47.88,0,0,0,19.13,62.67Z"/><path class="cls-1" d="M23.74,7.32a8.93,8.93,0,0,0,8.09,14.41Z"/><path class="cls-1" d="M23.74,7.32a8.93,8.93,0,0,1,8.09,14.41Z"/><path class="cls-1" d="M51.92,3.09A11.52,11.52,0,0,1,41.48,21.68Z"/><path class="cls-1" d="M51.92,3.09A11.52,11.52,0,0,0,41.48,21.68Z"/><path class="cls-1" d="M164,2.3l-15.9,64.88h-16L120,20.12l-12.22,47H91.9L76,2.3H90.06L100,52.56,112.85,2.3h14.24l13,50.27L150,2.3Z"/><path class="cls-1" d="M199,54.12H173l-4.59,13H154.76L178.65,3h14.8l23.8,64.14H203.55Zm-3.49-9.83L186,16.91l-9.56,27.38Z"/><path class="cls-1" d="M244,3.17a14.38,14.38,0,0,1,5.68,7.12V1.09h11.2V45.57a24.6,24.6,0,0,1-2.44,11.08,18,18,0,0,1-7.28,7.72,23,23,0,0,1-11.72,2.8q-9.6,0-15.52-4.56a18.86,18.86,0,0,1-7.2-12.4h11.12a9.18,9.18,0,0,0,3.72,5.24,12.33,12.33,0,0,0,7.08,1.88,11.06,11.06,0,0,0,8-2.92q3-2.92,3-8.84V36.13A14.58,14.58,0,0,1,244,43.29a16.84,16.84,0,0,1-9.6,2.68,19,19,0,0,1-10.08-2.72,18.37,18.37,0,0,1-7-7.88,27.32,27.32,0,0,1-2.52-12.12,27.32,27.32,0,0,1,2.52-12.12,18.37,18.37,0,0,1,7-7.88A19,19,0,0,1,234.44.53,17,17,0,0,1,244,3.17ZM229.48,13.81q-3.2,3.44-3.2,9.44t3.2,9.4a12.12,12.12,0,0,0,16.92-.08,12.94,12.94,0,0,0,3.32-9.32q0-5.92-3.32-9.4A11.16,11.16,0,0,0,238,10.37,11,11,0,0,0,229.48,13.81Z"/><path class="cls-1" d="M317.43,7.35a29.56,29.56,0,0,1,10.57,17H314.4a17.81,17.81,0,0,0-6.57-8.27,18.58,18.58,0,0,0-10.71-3A16.91,16.91,0,0,0,281.41,23a25.6,25.6,0,0,0-2.3,11.21,25.37,25.37,0,0,0,2.3,11.12,16.92,16.92,0,0,0,15.71,9.92,18.57,18.57,0,0,0,10.71-3,17.8,17.8,0,0,0,6.57-8.27H328a29.55,29.55,0,0,1-10.57,17q-8,6.25-20.13,6.25A31.78,31.78,0,0,1,280.9,63a28.46,28.46,0,0,1-11-11.72A36.58,36.58,0,0,1,266,34.18,36.78,36.78,0,0,1,269.88,17a28.56,28.56,0,0,1,11-11.72A31.72,31.72,0,0,1,297.31,1.1Q309.44,1.1,317.43,7.35Z"/></svg>